<svg width="600" height="400" viewBox="0 0 600 400" xmlns="http://www.w3.org/2000/svg">
  <defs>
    <linearGradient id="bg" x1="0%" y1="0%" x2="100%" y2="100%">
      <stop offset="0%" style="stop-color:#FFF9C4;stop-opacity:1" />
      <stop offset="100%" style="stop-color:#FFEB3B;stop-opacity:1" />
    </linearGradient>
  </defs>

  <!-- Background -->
  <rect width="600" height="400" fill="url(#bg)"/>

  <!-- Bookshelf -->
  <rect x="50" y="320" width="500" height="80" fill="#8D6E63"/>
  <rect x="50" y="300" width="500" height="20" fill="#5D4037"/>

  <!-- Books on shelf -->
  <rect x="60" y="310" width="15" height="70" fill="#FF5722"/>
  <rect x="80" y="315" width="12" height="65" fill="#2196F3"/>
  <rect x="95" y="312" width="18" height="68" fill="#4CAF50"/>
  <rect x="118" y="318" width="14" height="62" fill="#9C27B0"/>
  <rect x="135" y="310" width="16" height="70" fill="#FF9800"/>
  <rect x="155" y="316" width="13" height="64" fill="#E91E63"/>
  <rect x="172" y="313" width="17" height="67" fill="#00BCD4"/>
  <rect x="193" y="318" width="15" height="62" fill="#8BC34A"/>
  <rect x="212" y="311" width="14" height="69" fill="#3F51B5"/>
  <rect x="230" y="317" width="16" height="63" fill="#F44336"/>

  <!-- Students -->
  <!-- Student 1 (left) -->
  <circle cx="150" cy="200" r="25" fill="#FFDBB3"/>
  <rect x="135" y="225" width="30" height="40" fill="#FFDBB3"/>
  <rect x="125" y="265" width="15" height="30" fill="#2196F3"/>
  <rect x="155" y="265" width="15" height="30" fill="#2196F3"/>
  <rect x="140" y="295" width="20" height="25" fill="#000000"/>
  <circle cx="145" cy="195" r="3" fill="#000000"/>
  <circle cx="155" cy="195" r="3" fill="#000000"/>
  <path d="M 150 205 Q 145 210 150 215" stroke="#000000" stroke-width="2" fill="none"/>

  <!-- Student 2 (center) -->
  <circle cx="300" cy="190" r="28" fill="#FFDBB3"/>
  <rect x="280" y="218" width="40" height="45" fill="#FFDBB3"/>
  <rect x="268" y="263" width="18" height="32" fill="#FF9800"/>
  <rect x="314" y="263" width="18" height="32" fill="#FF9800"/>
  <rect x="290" y="295" width="20" height="25" fill="#000000"/>
  <circle cx="295" cy="185" r="3" fill="#000000"/>
  <circle cx="305" cy="185" r="3" fill="#000000"/>
  <path d="M 300 195 Q 295 200 300 205" stroke="#000000" stroke-width="2" fill="none"/>
  <!-- Book in hands -->
  <rect x="275" y="240" width="50" height="8" fill="#8D6E63"/>
  <rect x="275" y="235" width="50" height="5" fill="#5D4037"/>

  <!-- Student 3 (right) -->
  <circle cx="450" cy="195" r="26" fill="#FFDBB3"/>
  <rect x="430" y="221" width="40" height="42" fill="#FFDBB3"/>
  <rect x="420" y="263" width="16" height="32" fill="#4CAF50"/>
  <rect x="460" y="263" width="16" height="32" fill="#4CAF50"/>
  <rect x="440" y="295" width="20" height="25" fill="#000000"/>
  <circle cx="445" cy="190" r="3" fill="#000000"/>
  <circle cx="455" cy="190" r="3" fill="#000000"/>
  <path d="M 450 200 Q 445 205 450 210" stroke="#000000" stroke-width="2" fill="none"/>

  <!-- Speech bubbles -->
  <ellipse cx="200" cy="150" rx="60" ry="30" fill="#FFFFFF" stroke="#333" stroke-width="2"/>
  <text x="200" y="158" text-anchor="middle" font-family="Arial" font-size="12" fill="#333">Great book!</text>

  <ellipse cx="400" cy="140" rx="70" ry="35" fill="#FFFFFF" stroke="#333" stroke-width="2"/>
  <text x="400" y="150" text-anchor="middle" font-family="Arial" font-size="14" fill="#333">Learning together!</text>

  <!-- Title -->
  <text x="300" y="30" text-anchor="middle" font-family="Arial" font-size="24" font-weight="bold" fill="#333">Students Group Reading</text>
  <text x="300" y="50" text-anchor="middle" font-family="Arial" font-size="16" fill="#666">Replace with your actual image</text>
</svg>